<svg width="88" height="20" viewBox="0 0 88 20" fill="none" xmlns="http://www.w3.org/2000/svg">
<path d="M7.60326 15.7174C6.51318 15.7174 5.50486 15.5199 4.5783 15.1247C3.66536 14.7296 2.86143 14.1777 2.1665 13.4692C1.4852 12.7606 0.953792 11.9294 0.572265 10.9756C0.190738 10.0218 -2.54479e-05 8.9794 -2.54479e-05 7.84844C-2.54479e-05 6.71749 0.183925 5.6751 0.551826 4.72128C0.933353 3.75384 1.46477 2.92266 2.14606 2.22773C2.84099 1.51918 3.65173 0.974143 4.5783 0.592616C5.50486 0.197463 6.51318 -0.00011313 7.60326 -0.00011313C8.69334 -0.00011313 9.6676 0.183837 10.526 0.551739C11.3981 0.91964 12.1339 1.41017 12.7334 2.02334C13.333 2.62288 13.7622 3.28374 14.0211 4.00592L11.5275 5.17094C11.2414 4.40789 10.7577 3.78109 10.0764 3.29056C9.39508 2.7864 8.57071 2.53432 7.60326 2.53432C6.64944 2.53432 5.80464 2.75914 5.06883 3.2088C4.34666 3.65846 3.78118 4.27844 3.3724 5.06875C2.97725 5.85905 2.77967 6.78562 2.77967 7.84844C2.77967 8.91127 2.97725 9.84465 3.3724 10.6486C3.78118 11.4389 4.34666 12.0589 5.06883 12.5085C5.80464 12.9582 6.64944 13.183 7.60326 13.183C8.57071 13.183 9.39508 12.9377 10.0764 12.4472C10.7577 11.943 11.2414 11.3094 11.5275 10.5464L14.0211 11.7114C13.7622 12.4336 13.333 13.1013 12.7334 13.7144C12.1339 14.314 11.3981 14.7977 10.526 15.1656C9.6676 15.5335 8.69334 15.7174 7.60326 15.7174ZM16.053 15.4722V4.35338H18.567V6.82649L18.3626 6.45859C18.6215 5.62741 19.0235 5.04831 19.5685 4.72128C20.1272 4.39426 20.7948 4.23075 21.5715 4.23075H22.2256V6.60167H21.2649C20.5019 6.60167 19.8887 6.84012 19.4254 7.31703C18.9622 7.78031 18.7305 8.43436 18.7305 9.27917V15.4722H16.053ZM29.1344 15.7174C28.0443 15.7174 27.0496 15.4654 26.1503 14.9612C25.2646 14.457 24.5561 13.7689 24.0247 12.8969C23.5069 12.0248 23.248 11.0301 23.248 9.91277C23.248 8.79545 23.5069 7.80075 24.0247 6.92869C24.5561 6.05663 25.2646 5.36852 26.1503 4.86436C27.036 4.36019 28.0307 4.10811 29.1344 4.10811C30.2245 4.10811 31.2124 4.36019 32.0981 4.86436C32.9837 5.36852 33.6855 6.05663 34.2033 6.92869C34.7347 7.78712 35.0004 8.78182 35.0004 9.91277C35.0004 11.0301 34.7347 12.0248 34.2033 12.8969C33.6719 13.7689 32.9633 14.457 32.0776 14.9612C31.1919 15.4654 30.2109 15.7174 29.1344 15.7174ZM29.1344 13.2648C29.734 13.2648 30.2586 13.1217 30.7082 12.8355C31.1715 12.5494 31.5326 12.1542 31.7915 11.6501C32.064 11.1323 32.2003 10.5532 32.2003 9.91277C32.2003 9.25873 32.064 8.68644 31.7915 8.1959C31.5326 7.69174 31.1715 7.29659 30.7082 7.01044C30.2586 6.71067 29.734 6.56079 29.1344 6.56079C28.5212 6.56079 27.983 6.71067 27.5197 7.01044C27.0565 7.29659 26.6886 7.69174 26.416 8.1959C26.1571 8.68644 26.0277 9.25873 26.0277 9.91277C26.0277 10.5532 26.1571 11.1323 26.416 11.6501C26.6886 12.1542 27.0565 12.5494 27.5197 12.8355C27.983 13.1217 28.5212 13.2648 29.1344 13.2648ZM39.6314 15.4722L35.8093 4.35338H38.6299L41.43 12.7947L40.449 12.7742L43.4331 4.35338H45.804L48.7676 12.7742L47.7865 12.7947L50.5867 4.35338H53.4073L49.5852 15.4722H47.1938L44.1689 6.66298H45.0682L42.0023 15.4722H39.6314ZM59.8465 15.7174C58.77 15.7174 57.8094 15.4654 56.9646 14.9612C56.1198 14.4434 55.4521 13.7417 54.9616 12.856C54.471 11.9703 54.2258 10.9892 54.2258 9.91277C54.2258 8.8227 54.471 7.84163 54.9616 6.96957C55.4521 6.09751 56.1198 5.40258 56.9646 4.88479C57.823 4.36701 58.7768 4.10811 59.826 4.10811C60.6708 4.10811 61.4203 4.27844 62.0743 4.61909C62.742 4.94611 63.2666 5.40939 63.6481 6.00894L63.2393 6.56079V-0.00011313H65.9168V15.4722H63.3824V13.3261L63.6686 13.8575C63.287 14.457 62.7556 14.9203 62.0743 15.2473C61.393 15.5607 60.6504 15.7174 59.8465 15.7174ZM60.1326 13.2648C60.7458 13.2648 61.284 13.1217 61.7473 12.8355C62.2106 12.5494 62.5717 12.1542 62.8306 11.6501C63.1031 11.1459 63.2393 10.5668 63.2393 9.91277C63.2393 9.27235 63.1031 8.70006 62.8306 8.1959C62.5717 7.67812 62.2106 7.27615 61.7473 6.99001C61.284 6.70386 60.7458 6.56079 60.1326 6.56079C59.5331 6.56079 58.9949 6.71067 58.5179 7.01044C58.041 7.29659 57.6663 7.69174 57.3938 8.1959C57.1349 8.68644 57.0055 9.25873 57.0055 9.91277C57.0055 10.5668 57.1349 11.1459 57.3938 11.6501C57.6663 12.1542 58.041 12.5494 58.5179 12.8355C58.9949 13.1217 59.5331 13.2648 60.1326 13.2648ZM69.6955 15.4722V6.74474H67.7334V4.35338H69.6955V3.98548C69.6955 3.14067 69.8658 2.42531 70.2065 1.83939C70.5607 1.23985 71.0513 0.78338 71.6781 0.469983C72.3049 0.156585 73.0475 -0.00011313 73.9059 -0.00011313C74.0694 -0.00011313 74.2466 0.0135127 74.4373 0.0407642C74.6417 0.0543908 74.812 0.0748299 74.9483 0.102081V2.41168C74.812 2.38443 74.6826 2.3708 74.56 2.3708C74.451 2.35718 74.3488 2.35037 74.2534 2.35037C73.6538 2.35037 73.1906 2.48663 72.8635 2.75914C72.5365 3.01804 72.373 3.42682 72.373 3.98548V4.35338H74.8461V6.74474H72.373V15.4722H69.6955ZM78.0601 19.9892C77.7604 19.9892 77.4674 19.9619 77.1813 19.9074C76.8951 19.8665 76.6362 19.7916 76.4046 19.6826V17.4343C76.5817 17.4752 76.7929 17.5161 77.0382 17.5569C77.2971 17.5978 77.5355 17.6183 77.7535 17.6183C78.3667 17.6183 78.8096 17.4752 79.0821 17.189C79.3682 16.9029 79.6203 16.5282 79.8383 16.0649L80.5741 14.348L80.5332 16.5963L75.6892 4.35338H78.5711L81.964 13.3874H80.942L84.3144 4.35338H87.2168L82.3727 16.5963C82.0866 17.3185 81.7391 17.9317 81.3304 18.4358C80.9216 18.94 80.4447 19.3215 79.8996 19.5804C79.3682 19.8529 78.7551 19.9892 78.0601 19.9892Z" fill="#0A0A0A"/>
</svg>
