<svg width="30" height="25" viewBox="0 0 30 25" fill="none" xmlns="http://www.w3.org/2000/svg">
<path d="M26.2445 -1.21247e-07C27.7764 -5.4284e-08 29.0183 1.24187 29.0183 2.7738C29.0183 4.30573 27.7764 5.54761 26.2445 5.54761L2.77388 5.54761C1.24195 5.54761 7.61057e-05 4.30573 7.61727e-05 2.7738C7.62397e-05 1.24187 1.24195 -1.21414e-06 2.77388 -1.14718e-06L26.2445 -1.21247e-07Z" fill="#84CC16"/>
<path d="M19.4166 9.60205C20.9486 9.60205 22.1904 10.8439 22.1904 12.3759C22.1904 13.9078 20.9486 15.1497 19.4166 15.1497L9.60164 15.1497C8.06971 15.1497 6.82783 13.9078 6.82783 12.3759C6.82784 10.8439 8.06971 9.60205 9.60164 9.60205L19.4166 9.60205Z" fill="#84CC16"/>
<path d="M14.5094 19.2039C16.0413 19.2039 17.2832 20.4457 17.2832 21.9777C17.2832 23.5096 16.0413 24.7515 14.5094 24.7515C12.9775 24.7515 11.7356 23.5096 11.7356 21.9777C11.7356 20.4457 12.9775 19.2039 14.5094 19.2039Z" fill="#84CC16"/>
</svg>
